<svg width="24" height="24" viewBox="0 0 24 24" fill="none" xmlns="http://www.w3.org/2000/svg">
<path d="M9.62718 17.3306C10.0851 17.3985 10.6868 17.4 11.4 17.4V19.1638L11.4 19.2016C11.4 19.5387 11.3999 19.8462 11.4274 20.0738C11.4415 20.1909 11.4684 20.3438 11.5382 20.4873C11.6171 20.6495 11.7693 20.832 12.0267 20.9021C12.2841 20.9721 12.5078 20.892 12.658 20.7922C12.7909 20.7039 12.8916 20.5858 12.9632 20.492C13.1022 20.3098 13.2581 20.0447 13.429 19.7541L13.4481 19.7216L14.7442 17.5183L14.769 17.4761C15.1414 16.8431 15.4552 16.3097 15.6327 15.8708C15.816 15.4177 15.9233 14.9002 15.6405 14.4056C15.3575 13.9109 14.8565 13.7411 14.3728 13.6694C13.9149 13.6015 13.3132 13.6 12.6 13.6V11.8362C12.6 11.8235 12.6 11.8109 12.6 11.7984C12.6 11.4613 12.6001 11.1538 12.5726 10.9262C12.5585 10.8091 12.5316 10.6562 12.4618 10.5127C12.3829 10.3505 12.2307 10.168 11.9733 10.0979C11.7159 10.0279 11.4922 10.108 11.342 10.2078C11.2091 10.2961 11.1084 10.4142 11.0368 10.508C10.8978 10.6902 10.7419 10.9553 10.571 11.2459C10.5647 11.2567 10.5583 11.2675 10.5519 11.2784L9.2558 13.4817C9.24751 13.4958 9.23925 13.5099 9.23102 13.5239C8.85862 14.1569 8.54484 14.6903 8.36731 15.1292C8.18401 15.5823 8.07667 16.0998 8.35954 16.5944C8.64251 17.0891 9.14346 17.2589 9.62718 17.3306ZM12.6038 13.8941C12.6038 13.8944 12.6038 13.8945 12.6038 13.8945C12.6038 13.8945 12.6038 13.8945 12.6038 13.8944C12.6038 13.8943 12.6038 13.8942 12.6038 13.8941Z" fill="#7E869E" fill-opacity="0.25" stroke="#222222" stroke-width="1.2"/>
<path fill-rule="evenodd" clip-rule="evenodd" d="M12 2.39999C9.72238 2.39999 7.76361 3.75969 6.88869 5.70912C6.69098 6.14964 6.33365 6.39999 6.00002 6.39999C4.0118 6.39999 2.40002 8.01177 2.40002 9.99999C2.40002 11.6582 3.52115 13.0546 5.04675 13.4724C5.11992 13.062 5.27565 12.681 5.4963 12.347C4.41267 12.1156 3.60002 11.1527 3.60002 9.99999C3.60002 8.67451 4.67454 7.59999 6.00002 7.59999C6.94648 7.59999 7.65705 6.92781 7.98348 6.20048C8.67196 4.66645 10.2121 3.59999 12 3.59999C13.7879 3.59999 15.3281 4.66645 16.0166 6.20048C16.343 6.92781 17.0536 7.59999 18 7.59999C19.3255 7.59999 20.4 8.67451 20.4 9.99999C20.4 11.1527 19.5874 12.1156 18.5037 12.347C18.7244 12.681 18.8801 13.062 18.9533 13.4724C20.4789 13.0546 21.6 11.6582 21.6 9.99999C21.6 8.01177 19.9883 6.39999 18 6.39999C17.6664 6.39999 17.3091 6.14964 17.1114 5.70912C16.2364 3.75969 14.2777 2.39999 12 2.39999Z" fill="#222222"/>
</svg>
