<svg width="24" height="24" viewBox="0 0 24 24" fill="none" xmlns="http://www.w3.org/2000/svg">
<path d="M6.5 7.5H9.5" stroke="#2A4157" stroke-opacity="0.24" stroke-linecap="round"/>
<path d="M18.5 15.5H16.5C16.0114 15.5 15.8401 15.4976 15.7074 15.4712C15.1123 15.3528 14.6472 14.8877 14.5288 14.2926C14.5024 14.1599 14.5 13.9886 14.5 13.5C14.5 13.0114 14.5024 12.8401 14.5288 12.7074C14.6472 12.1123 15.1123 11.6472 15.7074 11.5288C15.8401 11.5024 16.0114 11.5 16.5 11.5H18.5C18.9886 11.5 19.1599 11.5024 19.2926 11.5288C19.8877 11.6472 20.3528 12.1123 20.4712 12.7074C20.4976 12.8401 20.5 13.0114 20.5 13.5C20.5 13.9886 20.4976 14.1599 20.4712 14.2926C20.3528 14.8877 19.8877 15.3528 19.2926 15.4712C19.1599 15.4976 18.9886 15.5 18.5 15.5Z" stroke="#2A4157" stroke-opacity="0.24"/>
<path d="M9.75 4.5H14.25C15.8553 4.5 17.0083 4.5011 17.8856 4.62093C18.7478 4.73868 19.269 4.96263 19.6552 5.35496C20.0424 5.74839 20.2643 6.28104 20.3808 7.16067C20.499 8.05388 20.5 9.22698 20.5 10.8571V13.1429C20.5 14.773 20.499 15.9461 20.3808 16.8393C20.2643 17.719 20.0424 18.2516 19.6552 18.645C19.269 19.0374 18.7478 19.2613 17.8856 19.3791C17.0083 19.4989 15.8553 19.5 14.25 19.5H9.75C8.14466 19.5 6.99174 19.4989 6.11437 19.3791C5.25221 19.2613 4.73104 19.0374 4.34484 18.645C3.95756 18.2516 3.73566 17.719 3.61924 16.8393C3.50103 15.9461 3.5 14.773 3.5 13.1429V10.8571C3.5 9.22698 3.50103 8.05388 3.61924 7.16067C3.73566 6.28104 3.95756 5.74839 4.34484 5.35496C4.73104 4.96263 5.25221 4.73868 6.11437 4.62093C6.99174 4.5011 8.14466 4.5 9.75 4.5Z" stroke="#222222"/>
</svg>
